# xmcd
#
# Track frame offsets: 
#        150
#        15125
#        52828
#        71136
#        92506
#        130148
#        153829
#        173509
#        206061
#        241036
#        259833
#        287215
#
# Disc length: 4183 seconds
#
# Revision: 0
# Processed by: cddbd v1.5.1PL0 Copyright (c) Steve Scherf et al.
# Submitted via: ExactAudioCopy v0.95b2
#
DISCID=9310550c
DTITLE=Jimmy Witherspoon - Big Blues (SACD)
DYEAR=2004
DGENRE=Blues
TTITLE0=You Got Me Running 
TTITLE1=Whiskey Drinking Woman
TTITLE2=Once There Lived A Fool 
TTITLE3=Just A Dream
TTITLE4=Lotus Blossom
TTITLE5=Big Boss Man
TTITLE6=Nobody Knows You When You're Down And Out 
TTITLE7=That's The One 
TTITLE8=Let's Think A While
TTITLE9=Swing On It
TTITLE10=The Point
TTITLE11=The Snow Was Falling
EXTD=
EXTT0=
EXTT1=
EXTT2=
EXTT3=
EXTT4=
EXTT5=
EXTT6=
EXTT7=
EXTT8=
EXTT9=
EXTT10=
EXTT11=
PLAYORDER=
